<?xml version="1.0" standalone="no"?>
<!DOCTYPE svg PUBLIC "-//W3C//DTD SVG 20010904//EN"
 "http://www.w3.org/TR/2001/REC-SVG-20010904/DTD/svg10.dtd">
<svg version="1.0" xmlns="http://www.w3.org/2000/svg"
 width="1500.000000pt" height="1500.000000pt" viewBox="0 0 1500.000000 1500.000000"
 preserveAspectRatio="xMidYMid meet">
<metadata>
Created by potrace 1.14, written by Peter Selinger 2001-2017
</metadata>
<g transform="translate(0.000000,1500.000000) scale(0.100000,-0.100000)"
fill="#000000" stroke="none">
<path d="M0 7500 l0 -7500 7500 0 7500 0 0 7500 0 7500 -7500 0 -7500 0 0
-7500z m7596 3921 c44 -16 103 -38 130 -49 52 -22 1878 -716 2004 -762 75 -28
247 -94 285 -110 11 -4 58 -22 105 -40 47 -17 130 -49 185 -70 55 -21 147 -57
205 -79 58 -22 152 -58 209 -80 58 -23 110 -41 117 -41 6 0 17 -6 23 -14 6 -7
26 -16 43 -20 17 -3 28 -9 25 -13 -7 -7 -26 -1 -387 117 -113 37 -340 111
-505 165 -165 54 -372 121 -460 150 -88 29 -315 103 -505 165 -403 131 -675
221 -1188 390 -336 112 -376 123 -405 113 -18 -6 -93 -30 -167 -53 -74 -23
-187 -59 -250 -80 -63 -20 -135 -43 -160 -50 -25 -7 -84 -25 -132 -41 -47 -16
-95 -29 -107 -29 -11 0 -23 -4 -26 -10 -3 -5 -24 -10 -46 -10 -33 0 -40 3 -37
18 2 9 9 16 15 15 6 -1 9 6 6 17 -3 11 -11 20 -18 20 -7 0 -15 7 -19 15 -3 10
1 15 13 15 10 0 24 7 31 15 7 8 23 15 36 15 12 0 26 5 29 10 3 6 13 10 20 10
8 0 43 14 77 30 34 17 69 30 78 30 9 0 20 4 26 8 5 4 36 18 69 31 33 12 69 26
80 31 11 4 54 21 95 38 41 17 111 44 155 62 44 17 89 35 100 39 11 5 38 15 60
24 22 8 51 19 65 25 36 15 37 15 126 -17z m197 -1194 c10 -6 77 -116 151 -242
l133 -230 276 -5 c228 -4 279 -8 291 -20 30 -31 286 -486 286 -507 0 -13 -59
-125 -132 -250 -72 -125 -131 -232 -131 -238 0 -5 59 -112 132 -236 72 -125
131 -237 131 -249 0 -25 -263 -487 -288 -507 -12 -10 -85 -13 -288 -13 -205 0
-274 -3 -282 -12 -5 -7 -67 -112 -137 -233 -70 -120 -134 -225 -143 -232 -26
-19 -570 -18 -598 1 -11 8 -81 118 -154 245 l-134 231 -276 0 c-206 0 -280 3
-292 13 -25 20 -288 484 -288 507 0 12 59 124 131 249 73 124 132 231 132 237
0 6 -59 113 -131 238 -73 125 -132 237 -132 248 0 26 263 486 292 511 18 15
48 17 292 17 l271 0 138 240 c76 131 143 241 150 244 7 2 141 5 298 5 214 1
289 -2 302 -12z m-2967 -3548 c134 -34 190 -193 105 -299 l-31 -39 31 -22 30
-21 15 21 c23 32 44 26 113 -37 l65 -59 -65 -65 c-141 -141 -340 -184 -482
-106 -105 58 -127 200 -46 293 28 32 29 36 16 62 -53 105 2 233 114 268 55 17
79 18 135 4z m1844 -11 c30 -9 108 -44 118 -53 2 -2 -20 -44 -49 -95 -38 -67
-56 -90 -68 -86 -9 2 -36 12 -61 21 -36 13 -52 15 -82 6 -82 -25 -115 -118
-62 -180 45 -54 117 -60 193 -15 17 10 32 16 34 13 3 -2 27 -44 56 -94 l51
-90 -23 -17 c-42 -33 -137 -58 -218 -58 -149 0 -249 57 -309 174 -32 63 -35
76 -35 155 0 97 25 167 83 232 80 91 236 127 372 87z m-2719 -108 c23 -61 45
-112 48 -115 4 -2 27 48 51 111 l45 114 118 0 c105 0 117 -2 116 -17 0 -10
-53 -153 -118 -318 l-118 -300 -90 -3 c-67 -2 -92 1 -96 10 -2 7 -57 147 -121
311 -64 164 -114 302 -111 308 4 5 57 9 120 9 l113 0 43 -110z m1637 -190 c1
-162 0 -305 -3 -318 -5 -22 -8 -23 -118 -20 l-112 3 -3 305 c-1 168 0 311 3
318 3 9 32 12 117 10 l113 -3 3 -295z m1884 -14 c64 -170 115 -313 112 -318
-3 -4 -50 -8 -104 -8 l-99 0 -16 30 c-15 30 -17 30 -96 30 -81 0 -81 0 -92
-30 l-11 -30 -103 0 c-56 0 -104 4 -107 8 -4 6 117 333 223 605 11 28 11 28
93 25 l82 -3 118 -309z m417 142 c13 -95 26 -186 29 -202 3 -21 2 -27 -6 -22
-7 4 -12 3 -12 -3 0 -5 5 -11 11 -13 11 -4 38 -151 39 -206 0 -22 -2 -23 -77
-20 l-78 3 -3 305 c-1 168 0 310 3 317 2 7 19 13 38 13 l33 0 23 -172z m-3774
-1088 c8 -13 -5 -13 -25 0 -13 8 -13 10 2 10 9 0 20 -4 23 -10z m90 -30 c3 -5
14 -10 23 -10 16 0 255 -77 932 -300 179 -59 480 -158 670 -220 190 -62 649
-213 1020 -337 371 -123 682 -224 690 -224 16 -1 171 45 205 60 21 9 53 19
150 46 33 9 71 21 85 27 14 6 39 14 55 18 17 5 57 16 90 25 33 10 71 17 84 16
13 0 29 4 36 9 10 8 11 0 7 -36 -3 -32 -2 -45 6 -40 6 3 14 1 17 -4 9 -15 -23
-50 -46 -50 -9 0 -30 -6 -46 -14 -43 -22 -90 -42 -178 -76 -44 -17 -89 -35
-100 -39 -11 -5 -56 -23 -100 -41 -44 -18 -93 -38 -110 -45 -16 -7 -58 -23
-93 -35 l-63 -23 -102 37 c-56 21 -131 49 -167 63 -36 14 -81 31 -100 38 -19
7 -55 21 -80 30 -25 10 -54 21 -65 25 -11 4 -40 15 -65 25 -25 9 -61 23 -80
30 -33 13 -58 22 -175 67 -27 10 -70 26 -95 35 -25 8 -58 21 -75 28 -25 11
-131 52 -285 110 -19 7 -57 22 -85 33 -27 11 -239 92 -470 180 -231 88 -433
166 -450 172 -16 7 -39 16 -50 20 -38 14 -110 42 -135 52 -14 6 -206 79 -428
164 -221 85 -410 158 -420 163 -9 5 -28 14 -42 19 l-25 11 27 0 c15 1 30 -3
33 -9z"/>
<path d="M7216 10138 c-10 -17 -222 -383 -241 -418 -2 -3 54 -104 125 -225
l128 -220 263 -2 264 -3 125 218 c69 119 125 222 125 228 0 6 -56 108 -125
227 l-125 217 -262 0 c-261 0 -263 0 -277 -22z"/>
<path d="M6256 9449 c-116 -200 -127 -224 -117 -246 6 -13 63 -114 127 -224
l116 -199 262 0 262 0 127 219 c70 120 127 221 127 225 0 4 -57 105 -127 226
l-127 220 -261 0 -260 0 -129 -221z"/>
<path d="M7950 9454 c-69 -119 -125 -221 -125 -228 0 -6 56 -109 125 -228
l125 -218 264 3 263 2 124 215 c68 118 124 218 124 223 0 4 -57 107 -127 228
l-127 219 -261 0 -260 0 -125 -216z"/>
<path d="M7104 8964 l-131 -226 130 -224 130 -224 260 2 259 3 125 215 c69
118 126 220 126 226 0 6 -57 110 -128 232 l-128 222 -256 0 -256 0 -131 -226z"/>
<path d="M6260 8483 c-69 -119 -125 -224 -125 -233 0 -9 56 -114 125 -233
l125 -217 260 3 260 2 127 220 c71 121 127 225 125 231 -1 6 -58 109 -127 228
l-125 216 -260 0 -260 0 -125 -217z"/>
<path d="M8054 8662 c-11 -20 -69 -121 -128 -223 l-107 -187 131 -226 132
-226 256 0 257 0 125 216 c69 118 126 221 128 229 2 7 -55 112 -125 234 l-128
221 -260 0 -260 0 -21 -38z"/>
<path d="M7223 8193 c-10 -15 -70 -117 -134 -227 l-116 -200 47 -80 c26 -45
84 -145 129 -224 l83 -142 261 2 262 3 127 220 127 220 -18 31 c-10 17 -65
112 -122 210 -56 99 -109 187 -117 197 -14 15 -39 17 -263 17 l-249 0 -17 -27z"/>
<path d="M4750 6489 c0 -24 23 -21 28 4 2 10 -3 17 -12 17 -10 0 -16 -9 -16
-21z"/>
<path d="M4737 6236 c-7 -18 16 -39 38 -34 14 2 13 7 -8 26 -20 19 -25 20 -30
8z"/>
<path d="M7262 6283 c-16 -29 -15 -33 8 -33 22 0 23 4 11 35 -8 19 -8 19 -19
-2z"/>
</g>
</svg>
